<?xml version="1.0" encoding="utf-8"?>
<!-- Generator: Adobe Illustrator 25.4.1, SVG Export Plug-In . SVG Version: 6.00 Build 0)  -->
<svg version="1.0" id="katman_1" xmlns="http://www.w3.org/2000/svg" xmlns:xlink="http://www.w3.org/1999/xlink" x="0px" y="0px"
	 viewBox="0 0 1024 768" style="enable-background:new 0 0 1024 768;" xml:space="preserve">
<style type="text/css">
	.st0{fill:#FF6D70;}
</style>
<path class="st0" d="M512.5,249.1c-74.9,0-135.3,60.4-135.3,135.3s60.4,135.3,135.3,135.3s135.3-60.4,135.3-135.3
	S587.4,249.1,512.5,249.1z M512.5,472.3c-48.4,0-87.9-39.4-87.9-87.9s39.4-87.9,87.9-87.9s87.9,39.4,87.9,87.9
	S560.9,472.3,512.5,472.3L512.5,472.3z M684.9,243.6c0,17.5-14.1,31.5-31.5,31.5c-17.5,0-31.5-14.1-31.5-31.5s14.1-31.5,31.5-31.5
	S684.9,226.2,684.9,243.6z M774.5,275.6c-2-42.3-11.7-79.7-42.6-110.5c-30.8-30.8-68.3-40.5-110.5-42.6c-43.6-2.5-174.1-2.5-217.7,0
	c-42.1,2-79.6,11.7-110.5,42.5s-40.5,68.3-42.6,110.5c-2.5,43.6-2.5,174.1,0,217.7c2,42.3,11.7,79.7,42.6,110.5
	s68.3,40.5,110.5,42.6c43.6,2.5,174.1,2.5,217.7,0c42.3-2,79.7-11.7,110.5-42.6c30.8-30.8,40.5-68.3,42.6-110.5
	C776.9,449.6,776.9,319.2,774.5,275.6L774.5,275.6z M718.2,539.9c-9.2,23.1-27,40.8-50.1,50.1c-34.7,13.8-117.1,10.6-155.5,10.6
	c-38.4,0-120.9,3.1-155.5-10.6c-23.1-9.2-40.8-27-50.1-50.1c-13.8-34.7-10.6-117.1-10.6-155.5s-3.1-120.9,10.6-155.5
	c9.2-23.1,27-40.8,50.1-50.1c34.7-13.8,117.1-10.6,155.5-10.6c38.4,0,120.9-3.1,155.5,10.6c23.1,9.2,40.8,27,50.1,50.1
	c13.8,34.7,10.6,117.1,10.6,155.5S732,505.3,718.2,539.9z"/>
</svg>
